{
  "asset": {
    "version": "2.0",
    "generator": "THREE.GLTFExporter"
  },
  "scenes": [
    {
      "nodes": [
        0
      ]
    }
  ],
  "scene": 0,
  "nodes": [
    {
      "children": [
        1,
        2,
        3,
        4,
        5,
        6,
        7,
        8,
        9,
        10,
        11,
        12,
        13,
        14
      ],
      "matrix": [
        0.01,
        0,
        0,
        0,
        0,
        0.01,
        0,
        0,
        0,
        0,
        0.01,
        0,
        0,
        0,
        0,
        1
      ]
    },
    {
      "matrix": [
        1,
        0,
        0,
        0,
        0,
        1,
        0,
        0,
        0,
        0,
        1,
        0,
        -164.53462603878123,
        126.58564062504163,
        42.5,
        1
      ],
      "name": "color sphere 4",
      "mesh": 0
    },
    {
      "matrix": [
        1,
        0,
        0,
        0,
        0,
        1,
        0,
        0,
        0,
        0,
        1,
        0,
        -164.53462603878123,
        480.0211555432322,
        42.5,
        1
      ],
      "name": "color sphere 3",
      "mesh": 1
    },
    {
      "matrix": [
        1,
        0,
        0,
        0,
        0,
        1,
        0,
        0,
        0,
        0,
        1,
        0,
        -165.53462603878123,
        362.50435908168686,
        42.5,
        1
      ],
      "name": "color sphere 2",
      "mesh": 2
    },
    {
      "matrix": [
        1,
        0,
        0,
        0,
        0,
        1,
        0,
        0,
        0,
        0,
        1,
        0,
        -165.53462603878123,
        243.63608866398812,
        42.5,
        1
      ],
      "name": "color sphere",
      "mesh": 3
    },
    {
      "matrix": [
        1,
        0,
        0,
        0,
        0,
        1,
        0,
        0,
        0,
        0,
        1,
        0,
        -137.6864612188366,
        -69.83950714382843,
        42.5,
        1
      ],
      "name": "Sphere 5",
      "mesh": 4
    },
    {
      "matrix": [
        1,
        0,
        0,
        0,
        0,
        1,
        0,
        0,
        0,
        0,
        1,
        0,
        -85.6864612188366,
        -124.83950714382843,
        42.5,
        1
      ],
      "name": "Sphere 4",
      "mesh": 5
    },
    {
      "matrix": [
        1,
        0,
        0,
        0,
        0,
        1,
        0,
        0,
        0,
        0,
        1,
        0,
        78.3135387811634,
        -137.83950714382843,
        42.5,
        1
      ],
      "name": "Sphere 3",
      "mesh": 6
    },
    {
      "matrix": [
        1,
        0,
        0,
        0,
        0,
        1,
        0,
        0,
        0,
        0,
        1,
        0,
        149.3135387811634,
        -81.83950714382843,
        42.5,
        1
      ],
      "name": "Sphere 2",
      "mesh": 7
    },
    {
      "matrix": [
        1,
        0,
        0,
        0,
        0,
        1,
        0,
        0,
        0,
        0,
        1,
        0,
        -8.686461218836598,
        -145.83950714382843,
        42.5,
        1
      ],
      "name": "Sphere",
      "mesh": 8
    },
    {
      "matrix": [
        -1.0194722008711166,
        0,
        0,
        0,
        0,
        1,
        0,
        0,
        0,
        0,
        1,
        0,
        15.453125,
        25.1484375,
        54.4999999999999,
        1
      ],
      "name": "Torus 2",
      "mesh": 9
    },
    {
      "matrix": [
        1,
        0,
        0,
        0,
        0,
        1,
        0,
        0,
        0,
        0,
        1,
        0,
        8.453125,
        24.1484375,
        54.5,
        1
      ],
      "name": "Torus",
      "mesh": 10
    },
    {
      "matrix": [
        0.5883484054145521,
        0.39223227027636803,
        -0.7071067811865475,
        0,
        -0.554700196225229,
        0.8320502943378437,
        0,
        0,
        0.588348405414552,
        0.392232270276368,
        0.7071067811865476,
        0,
        0,
        0,
        0,
        1
      ],
      "name": "Directional Light",
      "extensions": {
        "KHR_lights_punctual": {
          "light": 0
        }
      }
    },
    {
      "matrix": [
        1,
        0,
        0,
        0,
        0,
        1,
        -6.97884849305816e-17,
        0,
        0,
        6.97884849305816e-17,
        1,
        0,
        -19.482937558478024,
        114.29990034307299,
        814.3805862961301,
        1
      ],
      "camera": 0
    },
    {
      "matrix": [
        1,
        0,
        0,
        0,
        0,
        1,
        0,
        0,
        0,
        0,
        1,
        0,
        0,
        1,
        0,
        1
      ],
      "name": "Default Ambient Light"
    }
  ],
  "bufferViews": [
    {
      "buffer": 0,
      "byteOffset": 0,
      "byteLength": 11904,
      "target": 34962,
      "byteStride": 12
    },
    {
      "buffer": 0,
      "byteOffset": 11904,
      "byteLength": 11904,
      "target": 34962,
      "byteStride": 12
    },
    {
      "buffer": 0,
      "byteOffset": 23808,
      "byteLength": 5760,
      "target": 34963
    },
    {
      "buffer": 0,
      "byteOffset": 29568,
      "byteLength": 11904,
      "target": 34962,
      "byteStride": 12
    },
    {
      "buffer": 0,
      "byteOffset": 41472,
      "byteLength": 11904,
      "target": 34962,
      "byteStride": 12
    },
    {
      "buffer": 0,
      "byteOffset": 53376,
      "byteLength": 5760,
      "target": 34963
    },
    {
      "buffer": 0,
      "byteOffset": 59136,
      "byteLength": 11904,
      "target": 34962,
      "byteStride": 12
    },
    {
      "buffer": 0,
      "byteOffset": 71040,
      "byteLength": 11904,
      "target": 34962,
      "byteStride": 12
    },
    {
      "buffer": 0,
      "byteOffset": 82944,
      "byteLength": 5760,
      "target": 34963
    },
    {
      "buffer": 0,
      "byteOffset": 88704,
      "byteLength": 11904,
      "target": 34962,
      "byteStride": 12
    },
    {
      "buffer": 0,
      "byteOffset": 100608,
      "byteLength": 11904,
      "target": 34962,
      "byteStride": 12
    },
    {
      "buffer": 0,
      "byteOffset": 112512,
      "byteLength": 5760,
      "target": 34963
    },
    {
      "buffer": 0,
      "byteOffset": 118272,
      "byteLength": 11904,
      "target": 34962,
      "byteStride": 12
    },
    {
      "buffer": 0,
      "byteOffset": 130176,
      "byteLength": 11904,
      "target": 34962,
      "byteStride": 12
    },
    {
      "buffer": 0,
      "byteOffset": 142080,
      "byteLength": 5760,
      "target": 34963
    },
    {
      "buffer": 0,
      "byteOffset": 147840,
      "byteLength": 11904,
      "target": 34962,
      "byteStride": 12
    },
    {
      "buffer": 0,
      "byteOffset": 159744,
      "byteLength": 11904,
      "target": 34962,
      "byteStride": 12
    },
    {
      "buffer": 0,
      "byteOffset": 171648,
      "byteLength": 5760,
      "target": 34963
    },
    {
      "buffer": 0,
      "byteOffset": 177408,
      "byteLength": 11904,
      "target": 34962,
      "byteStride": 12
    },
    {
      "buffer": 0,
      "byteOffset": 189312,
      "byteLength": 11904,
      "target": 34962,
      "byteStride": 12
    },
    {
      "buffer": 0,
      "byteOffset": 201216,
      "byteLength": 5760,
      "target": 34963
    },
    {
      "buffer": 0,
      "byteOffset": 206976,
      "byteLength": 11904,
      "target": 34962,
      "byteStride": 12
    },
    {
      "buffer": 0,
      "byteOffset": 218880,
      "byteLength": 11904,
      "target": 34962,
      "byteStride": 12
    },
    {
      "buffer": 0,
      "byteOffset": 230784,
      "byteLength": 5760,
      "target": 34963
    },
    {
      "buffer": 0,
      "byteOffset": 236544,
      "byteLength": 11904,
      "target": 34962,
      "byteStride": 12
    },
    {
      "buffer": 0,
      "byteOffset": 248448,
      "byteLength": 11904,
      "target": 34962,
      "byteStride": 12
    },
    {
      "buffer": 0,
      "byteOffset": 260352,
      "byteLength": 5760,
      "target": 34963
    },
    {
      "buffer": 0,
      "byteOffset": 266112,
      "byteLength": 13056,
      "target": 34962,
      "byteStride": 12
    },
    {
      "buffer": 0,
      "byteOffset": 279168,
      "byteLength": 13056,
      "target": 34962,
      "byteStride": 12
    },
    {
      "buffer": 0,
      "byteOffset": 292224,
      "byteLength": 6528,
      "target": 34963
    },
    {
      "buffer": 0,
      "byteOffset": 298752,
      "byteLength": 13056,
      "target": 34962,
      "byteStride": 12
    },
    {
      "buffer": 0,
      "byteOffset": 311808,
      "byteLength": 13056,
      "target": 34962,
      "byteStride": 12
    },
    {
      "buffer": 0,
      "byteOffset": 324864,
      "byteLength": 6528,
      "target": 34963
    }
  ],
  "buffers": [
    {
      "byteLength": 331392,
      "uri": "data:application/octet-stream;base64,"
    }
  ],
  "accessors": [
    {
      "bufferView": 0,
      "componentType": 5126,
      "count": 992,
      "max": [
        44.31353759765625,
        45.83950424194336,
        42.5
      ],
      "min": [
        -44.31353759765625,
        -45.83950424194336,
        -42.5
      ],
      "type": "VEC3"
    },
    {
      "bufferView": 1,
      "componentType": 5126,
      "count": 992,
      "max": [
        1,
        1,
        1
      ],
      "min": [
        -1,
        -1,
        -1
      ],
      "type": "VEC3"
    },
    {
      "bufferView": 2,
      "componentType": 5125,
      "count": 1440,
      "max": [
        991
      ],
      "min": [
        0
      ],
      "type": "SCALAR"
    },
    {
      "bufferView": 3,
      "componentType": 5126,
      "count": 992,
      "max": [
        44.31353759765625,
        45.83950424194336,
        42.5
      ],
      "min": [
        -44.31353759765625,
        -45.83950424194336,
        -42.5
      ],
      "type": "VEC3"
    },
    {
      "bufferView": 4,
      "componentType": 5126,
      "count": 992,
      "max": [
        1,
        1,
        1
      ],
      "min": [
        -1,
        -1,
        -1
      ],
      "type": "VEC3"
    },
    {
      "bufferView": 5,
      "componentType": 5125,
      "count": 1440,
      "max": [
        991
      ],
      "min": [
        0
      ],
      "type": "SCALAR"
    },
    {
      "bufferView": 6,
      "componentType": 5126,
      "count": 992,
      "max": [
        44.31353759765625,
        45.83950424194336,
        42.5
      ],
      "min": [
        -44.31353759765625,
        -45.83950424194336,
        -42.5
      ],
      "type": "VEC3"
    },
    {
      "bufferView": 7,
      "componentType": 5126,
      "count": 992,
      "max": [
        1,
        1,
        1
      ],
      "min": [
        -1,
        -1,
        -1
      ],
      "type": "VEC3"
    },
    {
      "bufferView": 8,
      "componentType": 5125,
      "count": 1440,
      "max": [
        991
      ],
      "min": [
        0
      ],
      "type": "SCALAR"
    },
    {
      "bufferView": 9,
      "componentType": 5126,
      "count": 992,
      "max": [
        44.31353759765625,
        45.83950424194336,
        42.5
      ],
      "min": [
        -44.31353759765625,
        -45.83950424194336,
        -42.5
      ],
      "type": "VEC3"
    },
    {
      "bufferView": 10,
      "componentType": 5126,
      "count": 992,
      "max": [
        1,
        1,
        1
      ],
      "min": [
        -1,
        -1,
        -1
      ],
      "type": "VEC3"
    },
    {
      "bufferView": 11,
      "componentType": 5125,
      "count": 1440,
      "max": [
        991
      ],
      "min": [
        0
      ],
      "type": "SCALAR"
    },
    {
      "bufferView": 12,
      "componentType": 5126,
      "count": 992,
      "max": [
        44.31353759765625,
        45.83950424194336,
        42.5
      ],
      "min": [
        -44.31353759765625,
        -45.83950424194336,
        -42.5
      ],
      "type": "VEC3"
    },
    {
      "bufferView": 13,
      "componentType": 5126,
      "count": 992,
      "max": [
        1,
        1,
        1
      ],
      "min": [
        -1,
        -1,
        -1
      ],
      "type": "VEC3"
    },
    {
      "bufferView": 14,
      "componentType": 5125,
      "count": 1440,
      "max": [
        991
      ],
      "min": [
        0
      ],
      "type": "SCALAR"
    },
    {
      "bufferView": 15,
      "componentType": 5126,
      "count": 992,
      "max": [
        44.31353759765625,
        45.83950424194336,
        42.5
      ],
      "min": [
        -44.31353759765625,
        -45.83950424194336,
        -42.5
      ],
      "type": "VEC3"
    },
    {
      "bufferView": 16,
      "componentType": 5126,
      "count": 992,
      "max": [
        1,
        1,
        1
      ],
      "min": [
        -1,
        -1,
        -1
      ],
      "type": "VEC3"
    },
    {
      "bufferView": 17,
      "componentType": 5125,
      "count": 1440,
      "max": [
        991
      ],
      "min": [
        0
      ],
      "type": "SCALAR"
    },
    {
      "bufferView": 18,
      "componentType": 5126,
      "count": 992,
      "max": [
        44.31353759765625,
        45.83950424194336,
        42.5
      ],
      "min": [
        -44.31353759765625,
        -45.83950424194336,
        -42.5
      ],
      "type": "VEC3"
    },
    {
      "bufferView": 19,
      "componentType": 5126,
      "count": 992,
      "max": [
        1,
        1,
        1
      ],
      "min": [
        -1,
        -1,
        -1
      ],
      "type": "VEC3"
    },
    {
      "bufferView": 20,
      "componentType": 5125,
      "count": 1440,
      "max": [
        991
      ],
      "min": [
        0
      ],
      "type": "SCALAR"
    },
    {
      "bufferView": 21,
      "componentType": 5126,
      "count": 992,
      "max": [
        44.31353759765625,
        45.83950424194336,
        42.5
      ],
      "min": [
        -44.31353759765625,
        -45.83950424194336,
        -42.5
      ],
      "type": "VEC3"
    },
    {
      "bufferView": 22,
      "componentType": 5126,
      "count": 992,
      "max": [
        1,
        1,
        1
      ],
      "min": [
        -1,
        -1,
        -1
      ],
      "type": "VEC3"
    },
    {
      "bufferView": 23,
      "componentType": 5125,
      "count": 1440,
      "max": [
        991
      ],
      "min": [
        0
      ],
      "type": "SCALAR"
    },
    {
      "bufferView": 24,
      "componentType": 5126,
      "count": 992,
      "max": [
        44.31353759765625,
        45.83950424194336,
        42.5
      ],
      "min": [
        -44.31353759765625,
        -45.83950424194336,
        -42.5
      ],
      "type": "VEC3"
    },
    {
      "bufferView": 25,
      "componentType": 5126,
      "count": 992,
      "max": [
        1,
        1,
        1
      ],
      "min": [
        -1,
        -1,
        -1
      ],
      "type": "VEC3"
    },
    {
      "bufferView": 26,
      "componentType": 5125,
      "count": 1440,
      "max": [
        991
      ],
      "min": [
        0
      ],
      "type": "SCALAR"
    },
    {
      "bufferView": 27,
      "componentType": 5126,
      "count": 1088,
      "max": [
        0.000050497248594183475,
        22.205476760864258,
        54.5
      ],
      "min": [
        -226.546875,
        -226.546875,
        -54.500267028808594
      ],
      "type": "VEC3"
    },
    {
      "bufferView": 28,
      "componentType": 5126,
      "count": 1088,
      "max": [
        0.9999999403953552,
        0.998687207698822,
        0.9985928535461426
      ],
      "min": [
        -0.9999999403953552,
        -0.9987450838088989,
        -0.9985928535461426
      ],
      "type": "VEC3"
    },
    {
      "bufferView": 29,
      "componentType": 5125,
      "count": 1632,
      "max": [
        1087
      ],
      "min": [
        0
      ],
      "type": "SCALAR"
    },
    {
      "bufferView": 30,
      "componentType": 5126,
      "count": 1088,
      "max": [
        0.000050497248594183475,
        22.205476760864258,
        54.5
      ],
      "min": [
        -226.546875,
        -226.546875,
        -54.500267028808594
      ],
      "type": "VEC3"
    },
    {
      "bufferView": 31,
      "componentType": 5126,
      "count": 1088,
      "max": [
        0.9999999403953552,
        0.998687207698822,
        0.9985928535461426
      ],
      "min": [
        -0.9999999403953552,
        -0.9987450838088989,
        -0.9985928535461426
      ],
      "type": "VEC3"
    },
    {
      "bufferView": 32,
      "componentType": 5125,
      "count": 1632,
      "max": [
        1087
      ],
      "min": [
        0
      ],
      "type": "SCALAR"
    }
  ],
  "meshes": [
    {
      "primitives": [
        {
          "mode": 4,
          "attributes": {
            "POSITION": 0,
            "NORMAL": 1
          },
          "extras": {
            "type": "SubdivGeometry",
            "parameters": {
              "width": 88.6270751953125,
              "height": 91.67900848388672,
              "depth": 85
            }
          },
          "indices": 2
        }
      ]
    },
    {
      "primitives": [
        {
          "mode": 4,
          "attributes": {
            "POSITION": 3,
            "NORMAL": 4
          },
          "extras": {
            "type": "SubdivGeometry",
            "parameters": {
              "width": 88.6270751953125,
              "height": 91.67900848388672,
              "depth": 85
            }
          },
          "indices": 5
        }
      ]
    },
    {
      "primitives": [
        {
          "mode": 4,
          "attributes": {
            "POSITION": 6,
            "NORMAL": 7
          },
          "extras": {
            "type": "SubdivGeometry",
            "parameters": {
              "width": 88.6270751953125,
              "height": 91.67900848388672,
              "depth": 85
            }
          },
          "indices": 8
        }
      ]
    },
    {
      "primitives": [
        {
          "mode": 4,
          "attributes": {
            "POSITION": 9,
            "NORMAL": 10
          },
          "extras": {
            "type": "SubdivGeometry",
            "parameters": {
              "width": 88.6270751953125,
              "height": 91.67900848388672,
              "depth": 85
            }
          },
          "indices": 11
        }
      ]
    },
    {
      "primitives": [
        {
          "mode": 4,
          "attributes": {
            "POSITION": 12,
            "NORMAL": 13
          },
          "extras": {
            "type": "SubdivGeometry",
            "parameters": {
              "width": 88.6270751953125,
              "height": 91.67900848388672,
              "depth": 85
            }
          },
          "indices": 14
        }
      ]
    },
    {
      "primitives": [
        {
          "mode": 4,
          "attributes": {
            "POSITION": 15,
            "NORMAL": 16
          },
          "extras": {
            "type": "SubdivGeometry",
            "parameters": {
              "width": 88.6270751953125,
              "height": 91.67900848388672,
              "depth": 85
            }
          },
          "indices": 17
        }
      ]
    },
    {
      "primitives": [
        {
          "mode": 4,
          "attributes": {
            "POSITION": 18,
            "NORMAL": 19
          },
          "extras": {
            "type": "SubdivGeometry",
            "parameters": {
              "width": 88.6270751953125,
              "height": 91.67900848388672,
              "depth": 85
            }
          },
          "indices": 20
        }
      ]
    },
    {
      "primitives": [
        {
          "mode": 4,
          "attributes": {
            "POSITION": 21,
            "NORMAL": 22
          },
          "extras": {
            "type": "SubdivGeometry",
            "parameters": {
              "width": 88.6270751953125,
              "height": 91.67900848388672,
              "depth": 85
            }
          },
          "indices": 23
        }
      ]
    },
    {
      "primitives": [
        {
          "mode": 4,
          "attributes": {
            "POSITION": 24,
            "NORMAL": 25
          },
          "extras": {
            "type": "SubdivGeometry",
            "parameters": {
              "width": 88.6270751953125,
              "height": 91.67900848388672,
              "depth": 85
            }
          },
          "indices": 26
        }
      ]
    },
    {
      "primitives": [
        {
          "mode": 4,
          "attributes": {
            "POSITION": 27,
            "NORMAL": 28
          },
          "extras": {
            "type": "SubdivGeometry",
            "parameters": {
              "width": 226.5469254972486,
              "height": 248.75235176086426,
              "depth": 109.0002670288086
            }
          },
          "indices": 29
        }
      ]
    },
    {
      "primitives": [
        {
          "mode": 4,
          "attributes": {
            "POSITION": 30,
            "NORMAL": 31
          },
          "extras": {
            "type": "SubdivGeometry",
            "parameters": {
              "width": 226.5469254972486,
              "height": 248.75235176086426,
              "depth": 109.0002670288086
            }
          },
          "indices": 32
        }
      ]
    }
  ],
  "extensions": {
    "KHR_lights_punctual": {
      "lights": [
        {
          "name": "Directional Light",
          "color": [
            1,
            1,
            1
          ],
          "intensity": 0.7,
          "type": "directional"
        }
      ]
    }
  },
  "cameras": [
    {
      "type": "perspective",
      "perspective": {
        "aspectRatio": 1.6647398843930636,
        "yfov": 0.7853981633974483,
        "zfar": 100000,
        "znear": 70
      }
    }
  ],
  "extensionsUsed": [
    "KHR_lights_punctual"
  ]
}